# xmcd
#
# Track frame offsets: 
#        150
#        12996
#        29284
#        43727
#        58611
#        71478
#        87766
#        98622
#        110842
#        122274
#        134548
#        152195
#        163742
#        174881
#        187637
#        199944
#        212899
#        223783
#        236881
#        250052
#        263929
#        273509
#        288729
#        305301
#
# Disc length: 4222 seconds
#
# Revision: 0
# Processed by: cddbd v1.5.2PL0 Copyright (c) Steve Scherf et al.
# Submitted via: ExactAudioCopy v1.1
#
DISCID=5e107c18
DTITLE=Various Artist - All Time Country Favourites - 1975 - 1980 Dis
DTITLE=c 1
DYEAR=2011
DGENRE=Country
TTITLE0=Don Williams - You're my best friend
TTITLE1=Kenny Rogers - Lucille
TTITLE2=Glen Campbell - Rhinestone cowboy
TTITLE3=Dolly Parton - It's all wrong, but it's all right
TTITLE4=Elvis Presley - Moody Blue
TTITLE5=Marty Robbins - Adios Amigo
TTITLE6=Crystal Gayle - Ready for the good times to get better
TTITLE7=Charlie Rich - Rollin' with the flow
TTITLE8=Jim Ed Brown and Helen Cornelius - Saying hello, saying I love
TTITLE8=you, saying goodbye
TTITLE9=George Jones and Tammy Wynette  - Two storey house
TTITLE10=Willie Nelson - All of me
TTITLE11=Connie Smith - ( 'Til ) I kissed you
TTITLE12=Mel Tillis - I believe in you
TTITLE13=Billie Jo Spears - '57 Chevrolet
TTITLE14=Conway Twitty - Linda on my mind
TTITLE15=Charley Pride - I'll be leaving alone
TTITLE16=Kendalls - Heaven's just a sin away
TTITLE17=Ronnie Milsap - What goes on when the sun goes down
TTITLE18=Bill Anderson and Mary Lou Turner - Sometimes
TTITLE19=Loretta Lynn - Somebody somewhere ( don't know what he's miss
TTITLE19=ing tonight )
TTITLE20=Tom T Hall - I care
TTITLE21=Tammy Wynette - You and me
TTITLE22=Dickey Lee - Rocky
TTITLE23=Waylon Jennings and Willie Nelson - Mammas don't let your bab
TTITLE23=ies grow up to be cowboys
EXTD=
EXTT0=
EXTT1=
EXTT2=
EXTT3=
EXTT4=
EXTT5=
EXTT6=
EXTT7=
EXTT8=
EXTT9=
EXTT10=
EXTT11=
EXTT12=
EXTT13=
EXTT14=
EXTT15=
EXTT16=
EXTT17=
EXTT18=
EXTT19=
EXTT20=
EXTT21=
EXTT22=
EXTT23=
PLAYORDER=
